<?xml version="1.0" standalone="no"?>
<!DOCTYPE svg PUBLIC "-//W3C//DTD SVG 20010904//EN"
 "http://www.w3.org/TR/2001/REC-SVG-20010904/DTD/svg10.dtd">
<svg version="1.0" xmlns="http://www.w3.org/2000/svg"
 width="260.000000pt" height="260.000000pt" viewBox="0 0 260.000000 260.000000"
 preserveAspectRatio="xMidYMid meet">
<metadata>
Created by potrace 1.14, written by Peter Selinger 2001-2017
</metadata>
<g transform="translate(0.000000,260.000000) scale(0.100000,-0.100000)"
fill="#000000" stroke="none">
<path d="M1169 2596 c-2 -2 -30 -7 -61 -10 -318 -37 -649 -235 -855 -514 -49
-66 -70 -101 -127 -210 -40 -78 -90 -238 -111 -352 -14 -74 -13 -316 0 -400
78 -481 412 -880 861 -1029 168 -55 230 -65 409 -66 152 0 223 8 331 36 411
107 743 405 891 798 55 146 76 265 77 431 1 85 -3 180 -7 210 -68 476 -411
888 -865 1040 -48 16 -98 31 -112 34 -14 2 -50 10 -80 16 -53 11 -342 25 -351
16z"/>
</g>
</svg>
